<svg width="182" height="46" fill="none" xmlns="http://www.w3.org/2000/svg"><path d="M19.507.02c-1.949.01-3.885.313-5.743.898C3.7 4.043-3.676 17.547 1.942 29.828 15.294 59.03 59.005 42.314 58.47 13.567c-.178-9.702-10.853-14.601-14.298-8.442-1.082 2.25-1.882 9.464-2.039 10.513-1.98 12.978-8.182 16.699-10.859 18.03-2.6 1.519-18.251 5.407-24.054-6.49-2.898-5.949-1.725-13.639 3.18-18.29a12.833 12.833 0 119.242 21.708 13.31 13.31 0 01-6.49-1.98c-.54-.308-.946.228-.426.585 11.183 7.781 19.954-2.293 19.954-2.293a16.354 16.354 0 003.726-7.972A16.536 16.536 0 0019.491.01m52.233 31.78a.622.622 0 01.611-.627h3.197c3.444 0 5.824 2.364 5.824 5.446v.033c0 3.082-2.38 5.478-5.825 5.478h-3.196a.622.622 0 01-.61-.628v-9.701zm3.786 9.194c2.769 0 4.537-1.882 4.537-4.326v-.033c0-2.428-1.768-4.326-4.537-4.326h-2.547v8.653l2.547.032zm10.756-9.274a.62.62 0 011.079-.477.622.622 0 01.16.477v9.864a.624.624 0 01-.62.68.623.623 0 01-.62-.68V31.71zm6.149 4.964v-.032a5.5 5.5 0 015.494-5.668 5.836 5.836 0 013.742 1.174.635.635 0 01.074.94.62.62 0 01-.431.19.661.661 0 01-.395-.157 4.648 4.648 0 00-3.039-1c-2.422 0-4.158 2.05-4.158 4.488v.033c0 2.611 1.67 4.553 4.326 4.553a5.152 5.152 0 003.163-1.082V37.41H98.25a.54.54 0 010-1.082h3.52a.622.622 0 01.611.622v3.26a.889.889 0 01-.422.752 6.67 6.67 0 01-3.974 1.33c-3.445 0-5.576-2.503-5.576-5.634m15.061-4.948a.63.63 0 01.159-.477.633.633 0 01.46-.203.626.626 0 01.59.424.63.63 0 01.029.256v9.864a.63.63 0 01-.159.476.62.62 0 01-.92 0 .63.63 0 01-.159-.477V31.71zm9.512.594h-3.179a.573.573 0 01-.579-.54.583.583 0 01.579-.579h7.608a.584.584 0 01.579.579.57.57 0 01-.579.54h-3.18v9.27a.624.624 0 01-.624.685.633.633 0 01-.464-.205.629.629 0 01-.161-.48v-9.27zm7.436 8.988l4.445-9.734a.805.805 0 01.784-.54h.065a.793.793 0 01.768.54l4.445 9.734c.044.1.07.206.076.314a.597.597 0 01-.595.595.677.677 0 01-.611-.455l-1.13-2.52h-6.025l-1.141 2.548a.614.614 0 01-.808.383.55.55 0 01-.294-.309.527.527 0 01-.033-.215c0-.113.026-.224.075-.325l-.021-.016zm7.771-3.196l-2.52-5.602-2.52 5.602h5.04zm7.365-6.386a.614.614 0 01.16-.477.62.62 0 01.919 0 .62.62 0 01.16.477v9.269h5.678a.574.574 0 01.541.578.54.54 0 01-.541.541h-6.306a.62.62 0 01-.611-.627V31.71zM71.34 20.343l6.306-14.24a2.455 2.455 0 012.325-1.578h.238a2.417 2.417 0 012.298 1.579l6.306 14.239c.126.248.198.521.21.8a1.887 1.887 0 01-1.886 1.914 2.028 2.028 0 01-1.915-1.368l-1.227-2.844h-7.95l-1.244 2.98a1.952 1.952 0 01-1.833 1.238 1.832 1.832 0 01-1.833-1.86 2.09 2.09 0 01.233-.855l-.027-.005zm11.19-5.008l-2.505-5.949-2.52 5.949h5.024zm11.885-6.852h-3.823a1.838 1.838 0 110-3.672h11.627a1.835 1.835 0 011.789 1.11 1.851 1.851 0 010 1.453 1.85 1.85 0 01-1.056 1 1.835 1.835 0 01-.733.11h-3.823v12.583a1.99 1.99 0 01-3.98 0V8.483zm12.53-1.682a1.981 1.981 0 01.578-1.412 1.976 1.976 0 011.412-.578h6.284c2.298 0 4.083.644 5.273 1.834a5.707 5.707 0 011.546 4.137v.048c0 2.845-1.422 4.602-3.618 5.505l2.769 3.364c.394.413.623.955.644 1.525a1.853 1.853 0 01-1.172 1.705c-.228.09-.471.133-.716.128a2.38 2.38 0 01-1.963-1.033l-3.877-4.91h-3.18v3.953a1.987 1.987 0 01-1.99 1.99 1.989 1.989 0 01-1.99-1.99V6.801zm8.014 6.798c1.936 0 3.05-1.033 3.05-2.558v-.032c0-1.704-1.189-2.585-3.131-2.585h-3.953v5.197l4.034-.022zm9.664 6.744l6.306-14.24a2.452 2.452 0 012.325-1.578h.233a2.42 2.42 0 012.298 1.579l6.305 14.239c.127.248.199.521.211.8a1.883 1.883 0 01-1.887 1.914 2.027 2.027 0 01-1.914-1.368l-1.217-2.844h-7.955l-1.271 2.974a1.951 1.951 0 01-2.541 1.096 1.839 1.839 0 01-.993-1.008 1.817 1.817 0 01-.132-.71 2.1 2.1 0 01.232-.854zm11.189-5.008l-2.509-5.949-2.504 5.949h5.013zm11.887-6.852h-3.824a1.835 1.835 0 01-1.788-1.11 1.834 1.834 0 01.424-2.06 1.842 1.842 0 011.364-.502h11.627a1.837 1.837 0 011.739 1.836 1.836 1.836 0 01-1.739 1.836h-3.823v12.584a1.99 1.99 0 01-3.98 0V8.483zm12.713-1.838a1.991 1.991 0 013.98 0v14.422a1.987 1.987 0 01-1.99 1.99 1.989 1.989 0 01-1.99-1.99V6.645zm8.139 14.346a1.868 1.868 0 01-.611-2.207 1.83 1.83 0 011.719-1.13c.41-.002.809.125 1.142.363a7.627 7.627 0 004.623 1.623c1.623 0 2.612-.644 2.612-1.704v-.054c0-1.006-.622-1.525-3.645-2.298-3.645-.93-5.997-1.942-5.997-5.532v-.05c0-3.282 2.639-5.456 6.333-5.456a10.51 10.51 0 015.737 1.623 1.847 1.847 0 01.802 2.08 1.838 1.838 0 01-1.786 1.332c-.355 0-.703-.097-1.006-.281a7.499 7.499 0 00-3.785-1.217c-1.525 0-2.331.698-2.331 1.58v.048c0 1.19.779 1.579 3.904 2.38 3.672.956 5.738 2.27 5.738 5.407v.054c0 3.59-2.742 5.608-6.641 5.608a11.694 11.694 0 01-6.797-2.163" fill="#fff"/></svg>