<svg width="27" height="27" fill="none" xmlns="http://www.w3.org/2000/svg"><path d="M18.625 8.39s.382 3.87.708 3.652c1.094-.73 1.338-2.624 1.338-5.243 0-4.919-6.227-6.03-8.38-6.317-3.53-.471-3.305 2.77-3.58 2.862-4.485 3.635-1.044 8.698-1.044 8.698s.611-6.106 2.932-5.97c4.367 2.909 8.026 2.318 8.026 2.318z" fill="#F49322"/><mask id="a" style="mask-type:alpha" maskUnits="userSpaceOnUse" x="0" y="16" width="27" height="11"><path fill-rule="evenodd" clip-rule="evenodd" d="M6.524 20.384a2.188 2.188 0 101.43-.303 6.512 6.512 0 01-.076-.295c-.1-.45-.177-.905-.233-1.363-.06-.463-.095-.93-.102-1.396a4.774 4.774 0 01.01-.384c.28-.08.562-.153.843-.217.321-.073.512.307.666.614l.063.123h8.567c.167-.316.545-.82.912-.737.391.09.784.195 1.173.315l-.002.002v.001c.003.01.02.058.035.16.018.119.03.272.037.456.007.423-.011.845-.054 1.265-.044.45-.109.886-.182 1.23a4.76 4.76 0 01-.048.208h-.959a.729.729 0 00-.652.403l-.729 1.458a.729.729 0 00-.077.326v1.458a.73.73 0 00.729.73h1.458v-1.459h-.729v-.557l.45-.901h2.016l.45.901v.557h-.728v1.459h1.458a.729.729 0 00.73-.73V22.25a.729.729 0 00-.078-.326l-.73-1.458a.728.728 0 00-.651-.403h-.464c.078-.389.143-.843.187-1.298.048-.491.073-1 .06-1.445v-.02c2.908 1.228 5.321 3.248 5.321 5.366v3.96H.375v-3.96c0-2.211 2.632-4.317 5.71-5.525.008.453.051.966.113 1.463.067.535.158 1.069.259 1.508.022.094.044.185.067.272zm1.143 2.606c.392 0 .729-.32.729-.74a.735.735 0 00-.73-.74.734.734 0 00-.729.74c0 .419.337.74.73.74z" fill="#fff"/></mask><g mask="url(#a)" fill="#F49322"><path fill-rule="evenodd" clip-rule="evenodd" d="M6.524 20.384a2.188 2.188 0 101.43-.303 6.512 6.512 0 01-.076-.295c-.1-.45-.177-.905-.233-1.363-.06-.463-.095-.93-.102-1.396a4.774 4.774 0 01.01-.384c.28-.08.562-.153.843-.217.321-.073.512.307.666.614l.063.123h8.567c.167-.316.545-.82.912-.737.391.09.784.195 1.173.315l-.002.002v.001c.003.01.02.058.035.16.018.119.03.272.037.456.007.423-.011.845-.054 1.265-.044.45-.109.886-.182 1.23a4.76 4.76 0 01-.048.208h-.959a.729.729 0 00-.652.403l-.729 1.458a.729.729 0 00-.077.326v1.458a.73.73 0 00.729.73h1.458v-1.459h-.729v-.557l.45-.901h2.016l.45.901v.557h-.728v1.459h1.458a.729.729 0 00.73-.73V22.25a.729.729 0 00-.078-.326l-.73-1.458a.728.728 0 00-.651-.403h-.464c.078-.389.143-.843.187-1.298.048-.491.073-1 .06-1.445v-.02c2.908 1.228 5.321 3.248 5.321 5.366v3.96H.375v-3.96c0-2.211 2.632-4.317 5.71-5.525.008.453.051.966.113 1.463.067.535.158 1.069.259 1.508.022.094.044.185.067.272zm1.143 2.606c.392 0 .729-.32.729-.74a.735.735 0 00-.73-.74.734.734 0 00-.729.74c0 .419.337.74.73.74z"/><path d="M6.524 20.384l.763 1.243.924-.567-.277-1.048-1.41.372zm1.428-.303l-1.404.392.259.93.957.124.188-1.446zm-.074-.295L9.3 19.46l-1.422.326zm-.233-1.363l1.448-.181-1.448.18zm-.102-1.396l-1.459.01 1.459-.01zm.01-.384l-.402-1.402-.976.28-.076 1.012 1.455.11zm.843-.217l-.324-1.422.324 1.422zm.666.614l1.304-.653-1.304.653zm.063.123l-1.29.68.41.779h.88v-1.459zm2.963 0v1.459-1.459zm1.332 0v1.459-1.459zm0 0v-1.458 1.458zm1.309 0v-1.458 1.458zm2.963 0v1.459h.88l.41-.78-1.29-.679zm.912-.737l.324-1.422-.324 1.422zm1.173.315l.652 1.305 3.245-1.623-3.465-1.074-.432 1.392zm-.002.002l-1.304.653.653 1.303 1.303-.652-.652-1.304zm0 .001l1.42-.329-.015-.069-.022-.067-1.383.465zm0 0l-1.421.328.016.07.023.069 1.382-.467zm0 0l1.382-.465v-.002l-1.382.467zm.035.16l1.442-.221-1.442.222zm.037.456l-1.459.041 1.459-.04zm-.054 1.265l-1.452-.14 1.45.14h.002zm-.182 1.229l1.427.303-1.427-.303zm-.048.209v1.458h1.136l.278-1.101-1.414-.357zm-1.611.403l1.305.652-1.306-.652zm-.73 1.458l1.306.652-1.306-.652zm2.111 2.514v1.458h1.459v-1.458h-1.459zm0-1.459h1.459v-1.458h-1.459v1.458zm-.729 0h-1.458v1.459h1.458v-1.459zm0-.557L17.3 21.77l-.154.308v.344h1.458zm.45-.901v-1.458h-.9l-.404.805 1.305.653zm2.016 0l1.305-.653-.404-.805h-.9v1.458zm.45.901h1.46v-.344l-.155-.308-1.304.652zm0 .557v1.459h1.46v-1.459h-1.46zm-.728 0v-1.458h-1.459v1.458h1.459zm0 1.459h-1.459v1.458h1.459v-1.458zm2.11-2.514l1.305-.652-1.305.652zm-.73-1.458l1.306-.653-1.305.653zm-1.115-.403l-1.43-.287-.35 1.745h1.78v-1.458zm.187-1.298l1.451.141-1.45-.14h-.001zm.06-1.445l1.458-.041v-.003l-1.459.044h.001zm0-.021l.567-1.343-2.092-.884.067 2.27 1.457-.043zm5.321 9.326v1.458h1.458v-1.458h-1.458zm-26.25 0h-1.458v1.458H.375v-1.458zm5.71-9.484l1.458-.027-.038-2.097-1.953.766.533 1.358zm.113 1.463l-1.447.18 1.447-.18zm.259 1.507l-1.422.326 1.422-.326zm.48 2.14a.73.73 0 01.35-.624L5.76 19.142a3.645 3.645 0 00-1.74 3.108h2.916zm.73.728a.73.73 0 01-.73-.729H4.021a3.646 3.646 0 003.646 3.646v-2.917zm.729-.729a.73.73 0 01-.73.73v2.916a3.646 3.646 0 003.646-3.646H8.396zm-.632-.723a.729.729 0 01.632.723h2.916a3.646 3.646 0 00-3.171-3.615l-.377 2.892zm1.593-1.838a5.132 5.132 0 01-.057-.229l-2.844.651c.03.13.06.25.092.362l2.809-.784zM9.3 19.46a12.868 12.868 0 01-.207-1.217l-2.895.36c.067.536.158 1.07.259 1.508l2.843-.65zm-.207-1.217A10.991 10.991 0 019 17.018l-2.916.018c.003.478.048 1.032.114 1.567l2.895-.36zM9 17.018a3.397 3.397 0 01.008-.265l-2.91-.22a6.22 6.22 0 00-.014.503l2.917-.018zm-.928-2.014c-.308.07-.615.15-.92.237l.803 2.804c.256-.074.51-.14.765-.197l-.648-2.844zm2.294 1.383c-.055-.112-.222-.461-.47-.749-.277-.32-.911-.842-1.824-.634l.648 2.843c-.24.054-.491.028-.715-.074a.933.933 0 01-.318-.23c-.03-.037-.035-.05-.014-.014.021.037.044.082.085.165l2.608-1.307zm.05.097a5.898 5.898 0 01-.05-.097l-2.607 1.307c.02.04.047.095.075.148l2.582-1.358zm1.672-.779H9.125v2.917h2.963v-2.917zm1.333 0h-1.333v2.917h1.332v-2.917zm0 0v2.917-2.917zm0 0v2.917-2.917zm0 0v2.917-2.917zm0 0v2.917-2.917zm0 0v2.917-2.917zm0 0v2.917-2.917zm1.308 0h-1.31v2.917h1.31l-.001-2.917zm2.963 0h-2.963v2.917h2.963v-2.917zm1.236-.701c-.944-.215-1.628.36-1.866.59a3.58 3.58 0 00-.66.89l2.58 1.358a.845.845 0 01.09-.132l.012-.014-.032.026a.7.7 0 01-.121.069 1.036 1.036 0 01-.65.057l.647-2.844zm1.282.345a17.558 17.558 0 00-1.282-.345l-.648 2.843c.354.081.71.178 1.065.288l.865-2.786zm.217 2.698l.002-.001-1.303-2.608h-.003l1.304 2.61zm.73-1.768l.005.014.012.04c.003.01.01.031.015.058.034.135.048.275.042.414-.001.031-.003.466-.332.865a1.459 1.459 0 01-1.743.392c-.265-.123-.423-.298-.451-.328-.096-.104-.155-.2-.162-.211a1.466 1.466 0 01-.065-.114l-.007-.013 2.608-1.307-.007-.014-.026-.047a1.355 1.355 0 00-.04-.068c-.007-.01-.066-.106-.163-.21-.029-.031-.186-.205-.452-.33a1.459 1.459 0 00-1.742.394c-.329.399-.33.834-.331.864a1.369 1.369 0 00.056.472l.014.043.004.013v.002l2.765-.93zm.039.136l-2.842.657 2.842-.657zm-.04-.138l-2.763.933 2.764-.933zm.096.406a2.373 2.373 0 00-.095-.404l-2.764.93-.005-.013a1.176 1.176 0 01-.017-.058l-.002-.011 2.883-.444zm.052.637a5.178 5.178 0 00-.052-.637l-2.883.445c.006.038.015.127.02.273l2.915-.081zm-.06 1.445c.048-.491.073-1 .06-1.445l-2.916.081c.008.29-.007.675-.047 1.084l2.903.28zm-.206 1.392c.086-.409.158-.9.206-1.392l-2.903-.28c-.033.358-.085.714-.156 1.066l2.853.606zm-.061.262c.022-.087.042-.175.061-.262l-2.853-.606a4.288 4.288 0 01-.036.154l2.828.715zm-2.373 1.102h.959v-2.917h-.959v2.917zm.652-.403a.73.73 0 01-.652.403v-2.917a2.188 2.188 0 00-1.956 1.21l2.608 1.304zm-.73 1.458l.73-1.458-2.608-1.305-.73 1.459 2.609 1.305v-.001zm.078-.326a.73.73 0 01-.077.326l-2.608-1.305a2.187 2.187 0 00-.232.98h2.917zm0 1.458V22.25h-2.916v1.458h2.916zm-.729-.729a.73.73 0 01.73.73h-2.918a2.187 2.187 0 002.188 2.187v-2.917zm1.458 0h-1.458v2.917h1.458v-2.917zm-1.458 0v1.459h2.917v-1.459h-2.917zm.73 1.459h.728V21.52h-.729v2.917zm-1.46-2.016v.557h2.918v-.557h-2.917zm.606-1.553l-.451.901 2.609 1.304.45-.901-2.609-1.304h.001zm3.318-.806h-2.015v2.916h2.015v-2.916zm1.756 1.707l-.451-.901-2.609 1.304.45.901 2.61-1.304zm.154 1.21v-.558h-2.916v.557h2.916zm-2.187 1.458h.729V21.52h-.73v2.917zm1.458 0v-1.459h-2.917v1.459h2.917zm0-1.459h-1.458v2.917h1.458v-2.917zm-.73.73a.729.729 0 01.73-.73v2.917a2.188 2.188 0 002.188-2.188H21.52zm0-1.459v1.458h2.918V22.25H21.52zm.078.326a.73.73 0 01-.077-.326h2.916a2.2 2.2 0 00-.23-.979l-2.609 1.306v-.001zm-.73-1.458l.73 1.458 2.608-1.305-.729-1.458-2.608 1.305zm.653.403a.73.73 0 01-.652-.403l2.608-1.305a2.186 2.186 0 00-1.956-1.209v2.917zm-.464 0h.464v-2.917h-.464v2.917zm-1.264-2.896c-.037.386-.092.77-.166 1.151l2.86.573c.09-.445.16-.948.209-1.444l-2.903-.28zm.053-1.265c.007.423-.01.845-.053 1.265l2.902.281c.052-.532.081-1.106.066-1.628l-2.915.082zm0-.018v.02l2.916-.086v-.02l-2.917.086zm8.237 5.323c0-1.624-.915-3.014-2.021-4.071-1.128-1.076-2.622-1.975-4.191-2.638l-1.135 2.686c1.338.566 2.505 1.29 3.311 2.061.828.79 1.12 1.47 1.12 1.963h2.916v-.001zm0 3.96v-3.96h-2.916v3.96h2.916zM.375 28.083h26.25v-2.916H.375v2.916zm-1.458-5.417v3.96h2.916v-3.96h-2.916zm6.635-6.883c-1.66.652-3.253 1.564-4.46 2.668-1.18 1.08-2.175 2.52-2.175 4.215h2.916c0-.517.321-1.235 1.227-2.063.88-.804 2.14-1.548 3.558-2.105l-1.066-2.716v.001zm-.925 1.384c.01.52.058 1.086.124 1.617l2.894-.361a12.84 12.84 0 01-.102-1.31l-2.916.054zm.124 1.617c.072.574.17 1.158.284 1.653l2.844-.65c-.1-.451-.178-.906-.234-1.364l-2.894.36zm.284 1.653c.025.108.051.215.079.32l2.82-.745a10.44 10.44 0 01-.056-.226l-2.843.65zm1.902 1.813a.724.724 0 01.73-.718v2.916a2.193 2.193 0 002.187-2.198H6.937zm.73.718a.723.723 0 01-.73-.718h2.917a2.193 2.193 0 00-2.187-2.198v2.916zm.729-.718a.724.724 0 01-.73.718v-2.916A2.193 2.193 0 005.48 22.25h2.917zm-.73-.718c.407 0 .73.325.73.718H5.479a2.193 2.193 0 002.188 2.198v-2.916z"/></g></svg>