<svg width="34" height="34" fill="none" xmlns="http://www.w3.org/2000/svg"><g clip-path="url(#clip0_5208_208)" fill="#F49322"><path d="M8.5 3.187a3.189 3.189 0 11-6.377-.002 3.189 3.189 0 016.377.002zm19.125 0a3.189 3.189 0 11-6.377-.002 3.189 3.189 0 016.377.002zM8.5 8.5H2.125A2.125 2.125 0 000 10.625V21.25h2.125V34h2.656V21.25h1.063V34H8.5V21.25h2.125V10.625A2.125 2.125 0 008.5 8.5zM32.372 17L34 15.82l-4.426-6.844a1.062 1.062 0 00-.887-.478h-8.5a1.056 1.056 0 00-.886.478l-4.426 6.845L16.503 17l3.674-4.769 1.277 2.98-4.452 8.162h4.074l.707 10.625h2.125V23.373h1.063v10.625h2.125l.707-10.625h4.074l-4.452-8.164 1.277-2.98 3.674 4.769-.004.002z"/></g><defs><clipPath id="clip0_5208_208"><path fill="#fff" d="M0 0h34v34H0z"/></clipPath></defs></svg>