<svg width="27" height="27" viewBox="0 0 27 27" fill="none" xmlns="http://www.w3.org/2000/svg">
<path d="M18.6246 8.3901C18.6246 8.3901 19.0067 12.2598 19.3334 12.0418C20.4271 11.3126 20.6706 9.41823 20.6706 6.79906C20.6706 1.8801 14.4443 0.768852 12.2911 0.48156C8.76044 0.0105187 8.98648 3.25239 8.71086 3.34427C4.22648 6.97916 7.66669 12.0418 7.66669 12.0418C7.66669 12.0418 8.27846 5.93646 10.5994 6.07281C14.9664 8.98073 18.6246 8.3901 18.6246 8.3901Z" fill="#F49322"/>
<mask id="mask0_5208_200" style="mask-type:alpha" maskUnits="userSpaceOnUse" x="0" y="16" width="27" height="11">
<path fill-rule="evenodd" clip-rule="evenodd" d="M6.52406 20.3842C6.08414 20.6537 5.75363 21.07 5.59091 21.5595C5.42818 22.0491 5.44373 22.5804 5.63479 23.0596C5.82585 23.5388 6.18014 23.9351 6.63506 24.1784C7.08998 24.4217 7.61625 24.4964 8.12091 24.3893C8.62557 24.2822 9.07613 24.0002 9.393 23.5931C9.70987 23.186 9.87265 22.6799 9.85259 22.1644C9.83252 21.6489 9.63091 21.1571 9.28336 20.7758C8.93581 20.3946 8.46469 20.1484 7.95323 20.0808C7.9259 19.9832 7.90086 19.885 7.87813 19.7863C7.77841 19.3358 7.70054 18.8807 7.64479 18.4227C7.58455 17.9598 7.55046 17.4938 7.54271 17.0271C7.5412 16.8989 7.54484 16.7707 7.55365 16.6428C7.83365 16.5626 8.1151 16.4897 8.39583 16.4263C8.7174 16.3533 8.90844 16.7325 9.06229 17.0402L9.125 17.1634H17.692C17.859 16.847 18.2374 16.3424 18.6042 16.4263C18.995 16.5152 19.388 16.6209 19.7774 16.7413L19.7752 16.7427C19.7738 16.7413 19.7738 16.7413 19.7752 16.7442C19.7781 16.7544 19.7942 16.8018 19.8102 16.9046C19.8284 17.0227 19.8408 17.1758 19.8467 17.3603C19.8539 17.7827 19.8359 18.2052 19.7927 18.6254C19.749 19.0753 19.6841 19.5106 19.6111 19.8541C19.5951 19.9306 19.5791 19.9999 19.563 20.0626H18.6042C18.4688 20.0627 18.3361 20.1004 18.221 20.1717C18.1058 20.2429 18.0128 20.3447 17.9523 20.4658L17.2231 21.9242C17.1724 22.0253 17.1459 22.1369 17.1458 22.2501V23.7084C17.1458 23.9018 17.2227 24.0873 17.3594 24.224C17.4961 24.3608 17.6816 24.4376 17.875 24.4376H19.3333V22.9793H18.6042V22.4222L19.0548 21.5209H21.0702L21.5208 22.4222V22.9793H20.7917V24.4376H22.25C22.4434 24.4376 22.6289 24.3608 22.7656 24.224C22.9023 24.0873 22.9792 23.9018 22.9792 23.7084V22.2501C22.9791 22.1369 22.9526 22.0253 22.9019 21.9242L22.1727 20.4658C22.1122 20.3447 22.0192 20.2429 21.904 20.1717C21.7889 20.1004 21.6562 20.0627 21.5208 20.0626H21.0571C21.1351 19.674 21.2 19.2204 21.2437 18.7654C21.2919 18.274 21.3167 17.7643 21.3043 17.3195L21.3035 17.2991C24.2115 18.5277 26.625 20.5482 26.625 22.6657V26.6251H0.375V22.6657C0.375 20.4549 3.00729 18.3491 6.0851 17.1408C6.09313 17.5944 6.13615 18.107 6.19813 18.6035C6.26521 19.1388 6.35635 19.6725 6.45698 20.1115C6.47885 20.2055 6.50073 20.2967 6.52406 20.3842ZM7.66667 22.9902C8.05896 22.9902 8.39583 22.6694 8.39583 22.2501C8.39583 21.8316 8.05896 21.51 7.66667 21.51C7.27437 21.51 6.9375 21.8308 6.9375 22.2501C6.9375 22.6687 7.27437 22.9902 7.66667 22.9902Z" fill="white"/>
</mask>
<g mask="url(#mask0_5208_200)">
<path fill-rule="evenodd" clip-rule="evenodd" d="M6.52406 20.3842C6.08414 20.6537 5.75363 21.07 5.59091 21.5595C5.42818 22.0491 5.44373 22.5804 5.63479 23.0596C5.82585 23.5388 6.18014 23.9351 6.63506 24.1784C7.08998 24.4217 7.61625 24.4964 8.12091 24.3893C8.62557 24.2822 9.07613 24.0002 9.393 23.5931C9.70987 23.186 9.87265 22.6799 9.85259 22.1644C9.83252 21.6489 9.63091 21.1571 9.28336 20.7758C8.93581 20.3946 8.46469 20.1484 7.95323 20.0808C7.9259 19.9832 7.90086 19.885 7.87813 19.7863C7.77841 19.3358 7.70054 18.8807 7.64479 18.4227C7.58455 17.9598 7.55046 17.4938 7.54271 17.0271C7.5412 16.8989 7.54484 16.7707 7.55365 16.6428C7.83365 16.5626 8.1151 16.4897 8.39583 16.4263C8.7174 16.3533 8.90844 16.7325 9.06229 17.0402L9.125 17.1634H17.692C17.859 16.847 18.2374 16.3424 18.6042 16.4263C18.995 16.5152 19.388 16.6209 19.7774 16.7413L19.7752 16.7427C19.7738 16.7413 19.7738 16.7413 19.7752 16.7442C19.7781 16.7544 19.7942 16.8018 19.8102 16.9046C19.8284 17.0227 19.8408 17.1758 19.8467 17.3603C19.8539 17.7827 19.8359 18.2052 19.7927 18.6254C19.749 19.0753 19.6841 19.5106 19.6111 19.8541C19.5951 19.9306 19.5791 19.9999 19.563 20.0626H18.6042C18.4688 20.0627 18.3361 20.1004 18.221 20.1717C18.1058 20.2429 18.0128 20.3447 17.9523 20.4658L17.2231 21.9242C17.1724 22.0253 17.1459 22.1369 17.1458 22.2501V23.7084C17.1458 23.9018 17.2227 24.0873 17.3594 24.224C17.4961 24.3608 17.6816 24.4376 17.875 24.4376H19.3333V22.9793H18.6042V22.4222L19.0548 21.5209H21.0702L21.5208 22.4222V22.9793H20.7917V24.4376H22.25C22.4434 24.4376 22.6289 24.3608 22.7656 24.224C22.9023 24.0873 22.9792 23.9018 22.9792 23.7084V22.2501C22.9791 22.1369 22.9526 22.0253 22.9019 21.9242L22.1727 20.4658C22.1122 20.3447 22.0192 20.2429 21.904 20.1717C21.7889 20.1004 21.6562 20.0627 21.5208 20.0626H21.0571C21.1351 19.674 21.2 19.2204 21.2437 18.7654C21.2919 18.274 21.3167 17.7643 21.3043 17.3195L21.3035 17.2991C24.2115 18.5277 26.625 20.5482 26.625 22.6657V26.6251H0.375V22.6657C0.375 20.4549 3.00729 18.3491 6.0851 17.1408C6.09313 17.5944 6.13615 18.107 6.19813 18.6035C6.26521 19.1388 6.35635 19.6725 6.45698 20.1115C6.47885 20.2055 6.50073 20.2967 6.52406 20.3842ZM7.66667 22.9902C8.05896 22.9902 8.39583 22.6694 8.39583 22.2501C8.39583 21.8316 8.05896 21.51 7.66667 21.51C7.27437 21.51 6.9375 21.8308 6.9375 22.2501C6.9375 22.6687 7.27437 22.9902 7.66667 22.9902Z" fill="#F49322"/>
<path d="M6.52402 20.3841L7.28673 21.6274L8.21059 21.0601L7.9335 20.0123L6.52402 20.3841ZM7.95246 20.0808L6.54808 20.4731L6.80694 21.4021L7.76361 21.5267L7.95246 20.0808ZM7.87809 19.7862L9.29996 19.4603L7.87809 19.7862ZM7.64475 18.4227L9.09288 18.2418L7.64548 18.4227H7.64475ZM7.54267 17.0271L6.08433 17.0365L7.54267 17.0271ZM7.55361 16.6428L7.15111 15.2413L6.17548 15.5213L6.09892 16.5334L7.55361 16.6428ZM8.39579 16.4262L8.07204 15.0043L8.39579 16.4262ZM9.06225 17.0402L10.366 16.3868L9.06225 17.0402ZM9.12496 17.1634L7.83434 17.8423L8.24486 18.6217H9.12496V17.1634ZM12.0883 17.1634V18.6217V17.1634ZM13.4198 17.1634V18.6217V17.1634ZM13.4198 17.1634L13.4205 15.7051V17.1634H13.4198ZM14.7286 17.1634V15.7051V17.1634ZM17.6919 17.1634V18.6217H18.5728L18.9826 17.8423L17.6919 17.1634ZM18.6041 16.4262L18.9279 15.0043L18.6041 16.4262ZM19.7774 16.7412L20.4292 18.0464L23.674 16.4233L20.209 15.3485L19.7774 16.7412ZM19.7752 16.7427L18.4707 17.396L19.124 18.699L20.427 18.0472L19.7752 16.7427ZM19.7752 16.7441L21.1956 16.4153L21.1795 16.346L21.1577 16.2789L19.7752 16.7441ZM19.7752 16.7441L18.354 17.0723L18.3701 17.1423L18.3934 17.2108L19.7752 16.7441ZM19.7752 16.7441L21.1569 16.2789V16.2775L19.7752 16.7441ZM19.8102 16.9046L21.2517 16.6829L19.8102 16.9053V16.9046ZM19.8466 17.3603L18.3883 17.4011L19.8466 17.3603ZM19.7927 18.6254L18.3409 18.4847L19.7919 18.6254H19.7927ZM19.6111 19.854L21.0381 20.1566L19.6111 19.854ZM19.563 20.0626V21.5209H20.699L20.9768 20.4199L19.563 20.0626ZM17.9515 20.4658L19.2567 21.1177L17.9515 20.4658ZM17.2224 21.9241L18.5276 22.576L17.2224 21.9241ZM19.3333 24.4376V25.8959H20.7916V24.4376H19.3333ZM19.3333 22.9792H20.7916V21.5209H19.3333V22.9792ZM18.6041 22.9792H17.1458V24.4376H18.6041V22.9792ZM18.6041 22.4222L17.2996 21.7703L17.1458 22.078V22.4222H18.6041ZM19.0548 21.5209V20.0626H18.1535L17.7503 20.8683L19.0548 21.5209ZM21.0702 21.5209L22.3747 20.8683L21.9714 20.0626H21.0702V21.5209ZM21.5208 22.4222H22.9791V22.078L22.8253 21.7703L21.5208 22.4222ZM21.5208 22.9792V24.4376H22.9791V22.9792H21.5208ZM20.7916 22.9792V21.5209H19.3333V22.9792H20.7916ZM20.7916 24.4376H19.3333V25.8959H20.7916V24.4376ZM22.9018 21.9241L24.207 21.2715L22.9018 21.9241ZM22.1727 20.4658L23.4779 19.8132L22.1727 20.4658ZM21.057 20.0626L19.6279 19.776L19.2779 21.5209H21.057V20.0626ZM21.2437 18.7654L22.6955 18.9061L21.2444 18.7654H21.2437ZM21.3042 17.3195L22.7618 17.2786V17.2764L21.3035 17.3195H21.3042ZM21.3035 17.299L21.8708 15.9559L19.7788 15.0722L19.8459 17.3421L21.3035 17.299ZM26.625 26.6251V28.0834H28.0833V26.6251H26.625ZM0.374959 26.6251H-1.08337V28.0834H0.374959V26.6251ZM6.08506 17.1408L7.5434 17.1138L7.50475 15.0167L5.55204 15.7831L6.08506 17.1408ZM6.19809 18.6035L4.75142 18.7836L6.19809 18.6042V18.6035ZM6.45694 20.1114L5.03506 20.4366L6.45694 20.1114ZM6.93746 22.2501C6.93746 21.989 7.07381 21.7579 7.28673 21.6274L5.76058 19.1416C5.22884 19.4676 4.78964 19.9246 4.48502 20.4688C4.18041 21.0131 4.02056 21.6264 4.02079 22.2501H6.93746ZM7.66663 22.9792C7.47324 22.9792 7.28777 22.9024 7.15103 22.7657C7.01428 22.6289 6.93746 22.4435 6.93746 22.2501H4.02079C4.02079 22.7289 4.1151 23.2029 4.29832 23.6453C4.48154 24.0876 4.75009 24.4895 5.08863 24.8281C5.42718 25.1666 5.82909 25.4352 6.27143 25.6184C6.71376 25.8016 7.18785 25.8959 7.66663 25.8959V22.9792ZM8.39579 22.2501C8.39579 22.4435 8.31897 22.6289 8.18223 22.7657C8.04548 22.9024 7.86001 22.9792 7.66663 22.9792V25.8959C8.1454 25.8959 8.61949 25.8016 9.06183 25.6184C9.50416 25.4352 9.90607 25.1666 10.2446 24.8281C10.5832 24.4895 10.8517 24.0876 11.0349 23.6453C11.2182 23.2029 11.3125 22.7289 11.3125 22.2501H8.39579ZM7.76361 21.5267C7.93874 21.5502 8.09937 21.6365 8.21566 21.7696C8.33194 21.9026 8.39595 22.0734 8.39579 22.2501H11.3125C11.3125 21.3652 10.9908 20.5105 10.4072 19.8453C9.82358 19.1801 9.01797 18.7499 8.14058 18.6349L7.76361 21.5267ZM9.35684 19.6892C9.33613 19.6134 9.31717 19.537 9.29996 19.4603L6.45621 20.1114C6.48611 20.2405 6.51673 20.3615 6.54808 20.4731L9.35684 19.6892ZM9.29996 19.4603C9.21148 19.0579 9.14237 18.6516 9.09288 18.2426L6.19809 18.6035C6.26517 19.1387 6.35631 19.6725 6.45694 20.1114L9.29996 19.4603ZM9.09288 18.2426C9.03919 17.8363 9.00828 17.4273 9.00027 17.0176L6.08361 17.0365C6.08652 17.5141 6.13173 18.0683 6.19809 18.6035L9.09288 18.2426ZM9.00027 17.0176C8.99926 16.9293 9.0017 16.841 9.00757 16.7529L6.09892 16.5334C6.08727 16.7009 6.0824 16.8687 6.08433 17.0365L9.001 17.0183L9.00027 17.0176ZM8.07204 15.0036C7.76433 15.0743 7.45663 15.1531 7.15111 15.2413L7.95538 18.045C8.21059 17.9713 8.46579 17.9057 8.71954 17.8481L8.07204 15.0043V15.0036ZM10.366 16.3868C10.3106 16.2753 10.1443 15.926 9.89642 15.638C9.61934 15.3172 8.98496 14.7958 8.07204 15.0036L8.71954 17.8474C8.47961 17.9012 8.22867 17.8751 8.00496 17.773C7.88384 17.7196 7.77546 17.6411 7.68704 17.5426C7.65642 17.5061 7.65204 17.4923 7.67319 17.5294C7.69434 17.5659 7.71694 17.6111 7.7585 17.6942L10.366 16.3868ZM10.4156 16.4838C10.3988 16.4516 10.3822 16.4193 10.366 16.3868L7.7585 17.6942C7.77892 17.7336 7.8059 17.789 7.83434 17.8423L10.4156 16.4838ZM12.0883 15.7051H9.12496V18.6217H12.0883V15.7051ZM13.4205 15.7051H12.0883V18.6217H13.4198V15.7051H13.4205ZM13.4205 15.7051V18.6217V15.7051ZM13.4205 15.7051V18.6217V15.7051ZM13.4205 15.7051V18.6217V15.7051ZM13.4205 15.7051V18.6217V15.7051ZM13.4205 15.7051V18.6217V15.7051ZM13.4205 15.7051V18.6217V15.7051ZM14.7286 15.7051H13.4198V18.6217H14.7286L14.7279 15.7051H14.7286ZM17.6919 15.7051H14.7286V18.6217H17.6919V15.7051ZM18.9279 15.0036C17.9836 14.7892 17.2996 15.3646 17.0619 15.5942C16.7973 15.8549 16.5747 16.155 16.402 16.4838L18.9826 17.8423C19.008 17.7956 19.0378 17.7514 19.0715 17.7103L19.0839 17.6957C19.0839 17.6957 19.073 17.7059 19.0518 17.722C19.0139 17.7488 18.9733 17.7717 18.9308 17.7905C18.7259 17.8793 18.4977 17.8995 18.2804 17.8481L18.9279 15.0043V15.0036ZM20.2098 15.3485C19.7854 15.2173 19.3566 15.1013 18.9279 15.0036L18.2804 17.8474C18.634 17.9283 18.9899 18.0246 19.345 18.1347L20.2098 15.3492V15.3485ZM20.427 18.0472L20.4292 18.0457L19.1255 15.4375L19.1226 15.4382L20.427 18.0472ZM21.1569 16.2789L21.162 16.2928L21.1744 16.3336C21.1774 16.3438 21.1832 16.3642 21.189 16.3905C21.2226 16.5261 21.2366 16.6658 21.2306 16.8054C21.2299 16.836 21.2284 17.2713 20.8988 17.6702C20.6929 17.9195 20.41 18.0934 20.0946 18.1644C19.7791 18.2354 19.449 18.1995 19.1561 18.0625C18.8907 17.9385 18.7332 17.7642 18.7048 17.7336C18.6092 17.6301 18.5502 17.5338 18.5429 17.5229C18.5289 17.5009 18.5156 17.4785 18.5028 17.4558C18.4896 17.4325 18.4794 17.4135 18.478 17.4091L18.4707 17.396L21.0789 16.0893L21.0716 16.0748L21.0461 16.0281C21.0334 16.0051 21.02 15.9825 21.006 15.9603C20.9987 15.9493 20.9404 15.8538 20.8434 15.7503C20.8142 15.7189 20.6575 15.5447 20.3913 15.4207C20.0985 15.2839 19.7684 15.2483 19.4531 15.3194C19.1378 15.3905 18.8551 15.5644 18.6493 15.8137C18.3205 16.2126 18.3183 16.6479 18.3176 16.6785C18.3117 16.7996 18.3234 16.8936 18.3285 16.9308C18.3383 17.0048 18.3536 17.0779 18.3744 17.1496C18.3803 17.1714 18.3861 17.1875 18.3876 17.1926L18.3919 17.2057V17.2079L18.3927 17.2086L21.1569 16.2789ZM21.1956 16.4153L18.354 17.0723L21.1956 16.4153ZM21.1569 16.2767L18.3934 17.2101L21.1569 16.2767ZM21.2517 16.6829C21.232 16.5457 21.2002 16.4106 21.1569 16.2789L18.3934 17.2086C18.3934 17.2086 18.3905 17.2035 18.3883 17.1962C18.3822 17.1769 18.3766 17.1575 18.3715 17.1379L18.3693 17.127L21.2517 16.6829ZM21.3042 17.3195C21.2998 17.1064 21.2823 16.8938 21.2517 16.6829L18.3693 17.1277C18.3752 17.1663 18.3839 17.2546 18.3883 17.4011L21.3042 17.3195ZM21.2437 18.7654C21.2918 18.2739 21.3166 17.7642 21.3042 17.3195L18.3883 17.4011C18.3963 17.6913 18.381 18.0756 18.3409 18.4847L21.2437 18.7654ZM21.0381 20.1566C21.1241 19.7483 21.1963 19.2576 21.2437 18.7654L18.3409 18.4847C18.3079 18.8428 18.2558 19.1989 18.1849 19.5514L21.0381 20.1566ZM20.9768 20.4191C20.9989 20.332 21.0193 20.2445 21.0381 20.1566L18.1849 19.5514C18.1739 19.6029 18.162 19.6542 18.1491 19.7053L20.9768 20.4199V20.4191ZM18.6041 21.5209H19.563V18.6042H18.6041V21.5209ZM19.256 21.1177C19.1955 21.2388 19.1025 21.3406 18.9873 21.4119C18.8722 21.4831 18.7395 21.5208 18.6041 21.5209V18.6042C18.1979 18.6043 17.7998 18.7174 17.4543 18.9309C17.1087 19.1444 16.8295 19.4499 16.6478 19.8132L19.256 21.1184V21.1177ZM18.5268 22.576L19.256 21.1177L16.6478 19.8132L15.9186 21.2715L18.5268 22.5767V22.576ZM18.6041 22.2501C18.604 22.3632 18.5775 22.4748 18.5268 22.576L15.9186 21.2715C15.7666 21.5753 15.6875 21.9104 15.6875 22.2501H18.6041ZM18.6041 23.7084V22.2501H15.6875V23.7084H18.6041ZM17.875 22.9792C18.0683 22.9792 18.2538 23.0561 18.3906 23.1928C18.5273 23.3296 18.6041 23.515 18.6041 23.7084H15.6875C15.6875 24.2886 15.9179 24.845 16.3282 25.2552C16.7384 25.6654 17.2948 25.8959 17.875 25.8959V22.9792ZM19.3333 22.9792H17.875V25.8959H19.3333V22.9792ZM17.875 22.9792V24.4376H20.7916V22.9792H17.875ZM18.6041 24.4376H19.3333V21.5209H18.6041V24.4376ZM17.1458 22.4222V22.9792H20.0625V22.4222H17.1458ZM17.751 20.869L17.2996 21.7703L19.9086 23.074L20.3592 22.1728L17.7503 20.869H17.751ZM21.0694 20.0626H19.054V22.9792H21.0694V20.0626ZM22.8245 21.7703L22.3739 20.869L19.765 22.1728L20.2156 23.074L22.8245 21.7703ZM22.9791 22.9792V22.4222H20.0625V22.9792H22.9791ZM20.7916 24.4376H21.5208V21.5209H20.7916V24.4376ZM22.25 24.4376V22.9792H19.3333V24.4376H22.25ZM22.25 22.9792H20.7916V25.8959H22.25V22.9792ZM21.5208 23.7084C21.5208 23.515 21.5976 23.3296 21.7344 23.1928C21.8711 23.0561 22.0566 22.9792 22.25 22.9792V25.8959C22.8301 25.8959 23.3865 25.6654 23.7968 25.2552C24.207 24.845 24.4375 24.2886 24.4375 23.7084H21.5208ZM21.5208 22.2501V23.7084H24.4375V22.2501H21.5208ZM21.5981 22.576C21.5474 22.4748 21.5209 22.3632 21.5208 22.2501H24.4375C24.4374 21.9104 24.3583 21.5753 24.2063 21.2715L21.5981 22.5767V22.576ZM20.8689 21.1177L21.5981 22.576L24.2063 21.2715L23.4771 19.8132L20.8689 21.1184V21.1177ZM21.5208 21.5209C21.3854 21.5208 21.2527 21.4831 21.1376 21.4119C21.0225 21.3406 20.9294 21.2388 20.8689 21.1177L23.4771 19.8132C23.2955 19.4499 23.0162 19.1444 22.6707 18.9309C22.3251 18.7174 21.927 18.6043 21.5208 18.6042V21.5209ZM21.057 21.5209H21.5208V18.6042H21.057V21.5209ZM19.7927 18.6254C19.7563 19.0114 19.7011 19.3954 19.6271 19.776L22.4869 20.3491C22.5766 19.9043 22.6474 19.4012 22.6955 18.9054L19.7927 18.6254ZM19.8459 17.3603C19.8534 17.7827 19.8356 18.2051 19.7927 18.6254L22.6955 18.9061C22.7465 18.3738 22.7764 17.8 22.7611 17.2779L19.8459 17.3603ZM19.8459 17.3421V17.3617L22.7618 17.2764V17.256L19.8452 17.3421H19.8459ZM28.0833 22.665C28.0833 21.0411 27.1682 19.6506 26.062 18.594C24.934 17.5178 23.44 16.6187 21.8708 15.9559L20.7362 18.6422C22.0742 19.208 23.2409 19.9328 24.0474 20.7035C24.875 21.4939 25.1666 22.1728 25.1666 22.6657H28.0833V22.665ZM28.0833 26.6251V22.6657H25.1666V26.6251H28.0833ZM0.374959 28.0834H26.625V25.1667H0.374959V28.0834ZM-1.08337 22.6657V26.6251H1.83329V22.6657H-1.08337ZM5.55204 15.7831C3.89246 16.435 2.2985 17.3472 1.09173 18.4511C-0.0887907 19.5303 -1.08337 20.9711 -1.08337 22.6657H1.83329C1.83329 22.1494 2.15413 21.4312 3.05975 20.6029C3.93913 19.7993 5.19986 19.0549 6.61809 18.4985L5.55204 15.7824V15.7831ZM4.62673 17.1671C4.63621 17.6862 4.68506 18.2528 4.75069 18.7836L7.64548 18.4227C7.58916 17.9884 7.55508 17.5516 7.5434 17.1138L4.62673 17.1671ZM4.75069 18.7836C4.82288 19.3582 4.92131 19.9415 5.03506 20.4366L7.87881 19.7862C7.7791 19.3357 7.70123 18.8807 7.64548 18.4227L4.75069 18.7836ZM5.03506 20.4366C5.05986 20.5446 5.08611 20.6517 5.11381 20.7575L7.9335 20.0123C7.91527 19.9423 7.89704 19.8664 7.87809 19.7862L5.03506 20.4366ZM6.93746 22.2501C6.939 22.0582 7.01667 21.8747 7.15339 21.74C7.29012 21.6054 7.47472 21.5305 7.66663 21.5318V24.4485C8.85881 24.4485 9.85413 23.4802 9.85413 22.2501H6.93746ZM7.66663 22.9683C7.25975 22.9683 6.93746 22.6431 6.93746 22.2501H9.85413C9.85489 21.9621 9.79892 21.6767 9.68939 21.4104C9.57986 21.144 9.41894 20.9019 9.2158 20.6977C9.01266 20.4935 8.77129 20.3314 8.50548 20.2206C8.23967 20.1097 7.95463 20.0523 7.66663 20.0516V22.9683ZM8.39579 22.2501C8.39425 22.442 8.31659 22.6254 8.17986 22.7601C8.04313 22.8948 7.85854 22.9697 7.66663 22.9683V20.0516C6.47444 20.0516 5.47913 21.02 5.47913 22.2501H8.39579ZM7.66663 21.5318C8.0735 21.5318 8.39579 21.8571 8.39579 22.2501H5.47913C5.47836 22.5381 5.53434 22.8234 5.64386 23.0898C5.75339 23.3561 5.91432 23.5983 6.11746 23.8024C6.32059 24.0066 6.56196 24.1687 6.82777 24.2796C7.09358 24.3904 7.37863 24.4478 7.66663 24.4485V21.5318Z" fill="#F49322"/>
</g>
</svg>
