<svg width="34" height="34" viewBox="0 0 34 34" fill="none" xmlns="http://www.w3.org/2000/svg">
<g clip-path="url(#clip0_5208_208)">
<path d="M8.50005 3.18743C8.49977 4.03309 8.16356 4.844 7.56539 5.44177C6.96722 6.03954 6.15608 6.37521 5.31043 6.37493C4.46477 6.37465 3.65385 6.03844 3.05608 5.44027C2.45831 4.8421 2.12264 4.03096 2.12292 3.1853C2.12321 2.33964 2.45941 1.52873 3.05758 0.93096C3.35377 0.634973 3.70535 0.400223 4.09226 0.240111C4.47917 0.0799998 4.89382 -0.00233662 5.31255 -0.00219709C5.73128 -0.00205756 6.14588 0.0805552 6.53268 0.240924C6.91948 0.401294 7.27091 0.636278 7.56689 0.932463C7.86288 1.22865 8.09763 1.58023 8.25774 1.96714C8.41785 2.35404 8.50019 2.7687 8.50005 3.18743Z" fill="#F49322"/>
<path d="M27.6251 3.18743C27.6248 4.03309 27.2886 4.844 26.6904 5.44177C26.0922 6.03954 25.2811 6.37521 24.4354 6.37493C23.5898 6.37465 22.7789 6.03844 22.1811 5.44027C21.5833 4.8421 21.2476 4.03096 21.2479 3.1853C21.2482 2.33964 21.5844 1.52873 22.1826 0.93096C22.4788 0.634973 22.8304 0.400223 23.2173 0.240111C23.6042 0.0799998 24.0188 -0.00233662 24.4376 -0.00219709C24.8563 -0.00205756 25.2709 0.0805552 25.6577 0.240924C26.0445 0.401294 26.3959 0.636278 26.6919 0.932463C26.9879 1.22865 27.2226 1.58023 27.3827 1.96714C27.5429 2.35404 27.6252 2.7687 27.6251 3.18743Z" fill="#F49322"/>
<path d="M8.5 8.5H2.125C1.56141 8.5 1.02091 8.72388 0.622398 9.1224C0.223883 9.52091 0 10.0614 0 10.625L0 21.25H2.125V34H4.78125V21.25H5.84375V34H8.5V21.25H10.625V10.625C10.625 10.0614 10.4011 9.52091 10.0026 9.1224C9.60409 8.72388 9.06359 8.5 8.5 8.5Z" fill="#F49322"/>
<path d="M32.3722 16.9999L34 15.8206L29.5736 8.97593C29.477 8.82917 29.3454 8.70868 29.1908 8.62524C29.0361 8.54179 28.8632 8.49801 28.6875 8.49781H20.1875C20.0117 8.49744 19.8385 8.54098 19.6838 8.62447C19.529 8.70796 19.3976 8.82877 19.3014 8.97593L14.875 15.8206L16.5027 16.9999L20.1769 12.2314L21.454 15.2107L17.0021 23.3728H21.0758L21.7834 33.9978H23.9084V23.3728H24.9709V33.9978H27.0959L27.8035 23.3728H31.8771L27.4253 15.2086L28.7024 12.2293L32.3765 16.9978L32.3722 16.9999Z" fill="#F49322"/>
</g>
<defs>
<clipPath id="clip0_5208_208">
<rect width="34" height="34" fill="white"/>
</clipPath>
</defs>
</svg>
