<svg width="34" height="34" viewBox="0 0 34 34" fill="none" xmlns="http://www.w3.org/2000/svg">
<path d="M26.9167 12.7499C26.9173 11.0427 26.4772 9.36422 25.6389 7.87697C24.8006 6.38973 23.5926 5.14409 22.1318 4.26063C20.6709 3.37717 19.0067 2.88582 17.3003 2.83414C15.5938 2.78245 13.9029 3.17219 12.3913 3.96562C10.8796 4.75905 9.59843 5.92929 8.67168 7.36308C7.74493 8.79686 7.20403 10.4456 7.10133 12.1498C6.99864 13.8539 7.33764 15.5557 8.0855 17.0904C8.83337 18.6251 9.96478 19.9407 11.3702 20.9099L7.08338 28.3332L10.2794 28.465L11.9907 31.1666L16.9009 22.6609C16.9349 22.6609 16.966 22.6666 17 22.6666C17.034 22.6666 17.0652 22.6623 17.0992 22.6609L22.0094 31.1666L23.7547 28.5231L26.9167 28.3332L22.6299 20.9099C23.9525 19.9993 25.0338 18.7807 25.7806 17.3591C26.5274 15.9375 26.9173 14.3557 26.9167 12.7499ZM9.91671 12.7499C9.91671 11.349 10.3321 9.97947 11.1105 8.81462C11.8888 7.64977 12.9951 6.74189 14.2894 6.20577C15.5837 5.66964 17.0079 5.52937 18.3819 5.80268C19.756 6.07599 21.0181 6.75062 22.0087 7.74124C22.9993 8.73186 23.674 9.99399 23.9473 11.368C24.2206 12.7421 24.0803 14.1663 23.5442 15.4606C23.0081 16.7549 22.1002 17.8612 20.9353 18.6395C19.7705 19.4178 18.401 19.8332 17 19.8332C15.1214 19.8332 13.3198 19.087 11.9914 17.7586C10.663 16.4302 9.91671 14.6285 9.91671 12.7499Z" fill="#F49322"/>
<path d="M17 17C19.3472 17 21.25 15.0972 21.25 12.75C21.25 10.4028 19.3472 8.5 17 8.5C14.6528 8.5 12.75 10.4028 12.75 12.75C12.75 15.0972 14.6528 17 17 17Z" fill="#F49322"/>
</svg>
